<mxfile host="Electron" agent="Mozilla/5.0 (X11; Linux x86_64) AppleWebKit/537.36 (KHTML, like Gecko) draw.io/27.0.9 Chrome/134.0.6998.205 Electron/35.4.0 Safari/537.36" version="27.0.9" pages="2">
  <diagram name="Page-1" id="Efd9fNEpKsjS2DGzYjdH">
    <mxGraphModel dx="1426" dy="848" grid="1" gridSize="10" guides="1" tooltips="1" connect="1" arrows="1" fold="1" page="1" pageScale="1" pageWidth="850" pageHeight="1100" math="0" shadow="0">
      <root>
        <mxCell id="0" />
        <mxCell id="1" parent="0" />
        <mxCell id="QZA-um9iZWO432kzQPNW-8" value="/base/scripts/" style="swimlane;whiteSpace=wrap;html=1;" vertex="1" parent="1">
          <mxGeometry x="70" y="60" width="570" height="660" as="geometry" />
        </mxCell>
        <mxCell id="QZA-um9iZWO432kzQPNW-9" value="&lt;p style=&quot;margin:0px;margin-top:6px;text-align:center;&quot;&gt;&lt;b&gt;train_scaphoid_pointattn.sh&lt;/b&gt;&lt;/p&gt;&lt;hr size=&quot;1&quot; style=&quot;border-style:solid;&quot;&gt;&lt;p style=&quot;margin:0px;margin-left:8px;&quot;&gt;+ Attribute1: Type&lt;br&gt;+ Attribute2: Type&lt;/p&gt;" style="align=left;overflow=fill;html=1;dropTarget=0;whiteSpace=wrap;" vertex="1" parent="QZA-um9iZWO432kzQPNW-8">
          <mxGeometry x="10" y="50" width="230" height="90" as="geometry" />
        </mxCell>
        <mxCell id="QZA-um9iZWO432kzQPNW-10" value="" style="shape=component;jettyWidth=8;jettyHeight=4;" vertex="1" parent="QZA-um9iZWO432kzQPNW-9">
          <mxGeometry x="1" width="20" height="20" relative="1" as="geometry">
            <mxPoint x="-24" y="4" as="offset" />
          </mxGeometry>
        </mxCell>
        <mxCell id="QZA-um9iZWO432kzQPNW-55" value="&lt;p style=&quot;text-align: center; margin: 6px 0px 0px;&quot;&gt;&lt;span style=&quot;background-color: transparent; text-align: left;&quot;&gt;&lt;b&gt;train_rotation_pointattn&lt;/b&gt;&lt;/span&gt;&lt;b&gt;.sh&lt;/b&gt;&lt;/p&gt;&lt;hr size=&quot;1&quot; style=&quot;border-style:solid;&quot;&gt;&lt;p style=&quot;margin:0px;margin-left:8px;&quot;&gt;+ Attribute1: Type&lt;br&gt;+ Attribute2: Type&lt;/p&gt;" style="align=left;overflow=fill;html=1;dropTarget=0;whiteSpace=wrap;" vertex="1" parent="QZA-um9iZWO432kzQPNW-8">
          <mxGeometry x="10" y="224" width="230" height="90" as="geometry" />
        </mxCell>
        <mxCell id="QZA-um9iZWO432kzQPNW-56" value="" style="shape=component;jettyWidth=8;jettyHeight=4;" vertex="1" parent="QZA-um9iZWO432kzQPNW-55">
          <mxGeometry x="1" width="20" height="20" relative="1" as="geometry">
            <mxPoint x="-24" y="4" as="offset" />
          </mxGeometry>
        </mxCell>
        <mxCell id="QZA-um9iZWO432kzQPNW-57" style="edgeStyle=orthogonalEdgeStyle;rounded=0;orthogonalLoop=1;jettySize=auto;html=1;" edge="1" parent="QZA-um9iZWO432kzQPNW-8" source="QZA-um9iZWO432kzQPNW-58" target="QZA-um9iZWO432kzQPNW-66">
          <mxGeometry relative="1" as="geometry" />
        </mxCell>
        <mxCell id="QZA-um9iZWO432kzQPNW-58" value="&lt;p style=&quot;margin:0px;margin-top:6px;text-align:center;&quot;&gt;&lt;b&gt;train_rotation.sh&lt;/b&gt;&lt;/p&gt;&lt;hr size=&quot;1&quot; style=&quot;border-style:solid;&quot;&gt;&lt;p style=&quot;margin:0px;margin-left:8px;&quot;&gt;+ Attribute1: Type&lt;br&gt;+ Attribute2: Type&lt;/p&gt;" style="align=left;overflow=fill;html=1;dropTarget=0;whiteSpace=wrap;" vertex="1" parent="QZA-um9iZWO432kzQPNW-8">
          <mxGeometry x="290" y="224" width="230" height="90" as="geometry" />
        </mxCell>
        <mxCell id="QZA-um9iZWO432kzQPNW-59" value="" style="shape=component;jettyWidth=8;jettyHeight=4;" vertex="1" parent="QZA-um9iZWO432kzQPNW-58">
          <mxGeometry x="1" width="20" height="20" relative="1" as="geometry">
            <mxPoint x="-24" y="4" as="offset" />
          </mxGeometry>
        </mxCell>
        <mxCell id="QZA-um9iZWO432kzQPNW-60" value="&lt;b&gt;runner_rotation.py&lt;/b&gt;" style="swimlane;fontStyle=0;childLayout=stackLayout;horizontal=1;startSize=26;fillColor=none;horizontalStack=0;resizeParent=1;resizeParentMax=0;resizeLast=0;collapsible=1;marginBottom=0;whiteSpace=wrap;html=1;" vertex="1" parent="QZA-um9iZWO432kzQPNW-8">
          <mxGeometry x="900" y="224" width="185" height="112" as="geometry" />
        </mxCell>
        <mxCell id="QZA-um9iZWO432kzQPNW-61" value="+ train():&amp;nbsp;" style="text;strokeColor=none;fillColor=none;align=left;verticalAlign=top;spacingLeft=4;spacingRight=4;overflow=hidden;rotatable=0;points=[[0,0.5],[1,0.5]];portConstraint=eastwest;whiteSpace=wrap;html=1;" vertex="1" parent="QZA-um9iZWO432kzQPNW-60">
          <mxGeometry y="26" width="185" height="26" as="geometry" />
        </mxCell>
        <mxCell id="QZA-um9iZWO432kzQPNW-62" value="+ validate():" style="text;strokeColor=none;fillColor=none;align=left;verticalAlign=top;spacingLeft=4;spacingRight=4;overflow=hidden;rotatable=0;points=[[0,0.5],[1,0.5]];portConstraint=eastwest;whiteSpace=wrap;html=1;" vertex="1" parent="QZA-um9iZWO432kzQPNW-60">
          <mxGeometry y="52" width="185" height="26" as="geometry" />
        </mxCell>
        <mxCell id="QZA-um9iZWO432kzQPNW-63" value="+ test():" style="text;strokeColor=none;fillColor=none;align=left;verticalAlign=top;spacingLeft=4;spacingRight=4;overflow=hidden;rotatable=0;points=[[0,0.5],[1,0.5]];portConstraint=eastwest;whiteSpace=wrap;html=1;" vertex="1" parent="QZA-um9iZWO432kzQPNW-60">
          <mxGeometry y="78" width="185" height="26" as="geometry" />
        </mxCell>
        <mxCell id="QZA-um9iZWO432kzQPNW-64" value="" style="line;strokeWidth=1;fillColor=none;align=left;verticalAlign=middle;spacingTop=-1;spacingLeft=3;spacingRight=3;rotatable=0;labelPosition=right;points=[];portConstraint=eastwest;strokeColor=inherit;" vertex="1" parent="QZA-um9iZWO432kzQPNW-60">
          <mxGeometry y="104" width="185" height="8" as="geometry" />
        </mxCell>
        <mxCell id="QZA-um9iZWO432kzQPNW-65" style="edgeStyle=orthogonalEdgeStyle;rounded=0;orthogonalLoop=1;jettySize=auto;html=1;" edge="1" parent="QZA-um9iZWO432kzQPNW-8" source="QZA-um9iZWO432kzQPNW-66" target="QZA-um9iZWO432kzQPNW-60">
          <mxGeometry relative="1" as="geometry" />
        </mxCell>
        <mxCell id="QZA-um9iZWO432kzQPNW-66" value="&lt;b&gt;main_rotation.py&lt;/b&gt;" style="swimlane;fontStyle=0;childLayout=stackLayout;horizontal=1;startSize=26;fillColor=none;horizontalStack=0;resizeParent=1;resizeParentMax=0;resizeLast=0;collapsible=1;marginBottom=0;whiteSpace=wrap;html=1;" vertex="1" parent="QZA-um9iZWO432kzQPNW-8">
          <mxGeometry x="630" y="210" width="185" height="140" as="geometry" />
        </mxCell>
        <mxCell id="QZA-um9iZWO432kzQPNW-67" value="+ main():&amp;nbsp;" style="text;strokeColor=none;fillColor=none;align=left;verticalAlign=top;spacingLeft=4;spacingRight=4;overflow=hidden;rotatable=0;points=[[0,0.5],[1,0.5]];portConstraint=eastwest;whiteSpace=wrap;html=1;" vertex="1" parent="QZA-um9iZWO432kzQPNW-66">
          <mxGeometry y="26" width="185" height="26" as="geometry" />
        </mxCell>
        <mxCell id="QZA-um9iZWO432kzQPNW-68" value="" style="line;strokeWidth=1;fillColor=none;align=left;verticalAlign=middle;spacingTop=-1;spacingLeft=3;spacingRight=3;rotatable=0;labelPosition=right;points=[];portConstraint=eastwest;strokeColor=inherit;" vertex="1" parent="QZA-um9iZWO432kzQPNW-66">
          <mxGeometry y="52" width="185" height="8" as="geometry" />
        </mxCell>
        <mxCell id="QZA-um9iZWO432kzQPNW-69" value="initializes Logger, Dataloaders, BaseModel&lt;br&gt;Loads weights etc.&lt;div&gt;&lt;br/&gt;&lt;/div&gt;" style="text;strokeColor=none;fillColor=none;align=left;verticalAlign=top;spacingLeft=4;spacingRight=4;overflow=hidden;rotatable=0;points=[[0,0.5],[1,0.5]];portConstraint=eastwest;whiteSpace=wrap;html=1;" vertex="1" parent="QZA-um9iZWO432kzQPNW-66">
          <mxGeometry y="60" width="185" height="80" as="geometry" />
        </mxCell>
        <mxCell id="QZA-um9iZWO432kzQPNW-70" style="edgeStyle=orthogonalEdgeStyle;rounded=0;orthogonalLoop=1;jettySize=auto;html=1;" edge="1" parent="QZA-um9iZWO432kzQPNW-8" source="QZA-um9iZWO432kzQPNW-55" target="QZA-um9iZWO432kzQPNW-58">
          <mxGeometry relative="1" as="geometry" />
        </mxCell>
        <mxCell id="QZA-um9iZWO432kzQPNW-71" value="&lt;p style=&quot;text-align: center; margin: 6px 0px 0px;&quot;&gt;&lt;span style=&quot;background-color: transparent; text-align: left;&quot;&gt;&lt;b&gt;train_pose_est_pointattn&lt;/b&gt;&lt;/span&gt;&lt;b&gt;.sh&lt;/b&gt;&lt;/p&gt;&lt;hr size=&quot;1&quot; style=&quot;border-style:solid;&quot;&gt;&lt;p style=&quot;margin:0px;margin-left:8px;&quot;&gt;+ Attribute1: Type&lt;br&gt;+ Attribute2: Type&lt;/p&gt;" style="align=left;overflow=fill;html=1;dropTarget=0;whiteSpace=wrap;" vertex="1" parent="QZA-um9iZWO432kzQPNW-8">
          <mxGeometry x="10" y="404" width="230" height="90" as="geometry" />
        </mxCell>
        <mxCell id="QZA-um9iZWO432kzQPNW-72" value="" style="shape=component;jettyWidth=8;jettyHeight=4;" vertex="1" parent="QZA-um9iZWO432kzQPNW-71">
          <mxGeometry x="1" width="20" height="20" relative="1" as="geometry">
            <mxPoint x="-24" y="4" as="offset" />
          </mxGeometry>
        </mxCell>
        <mxCell id="QZA-um9iZWO432kzQPNW-73" style="edgeStyle=orthogonalEdgeStyle;rounded=0;orthogonalLoop=1;jettySize=auto;html=1;" edge="1" parent="QZA-um9iZWO432kzQPNW-8" source="QZA-um9iZWO432kzQPNW-74" target="QZA-um9iZWO432kzQPNW-82">
          <mxGeometry relative="1" as="geometry" />
        </mxCell>
        <mxCell id="QZA-um9iZWO432kzQPNW-74" value="&lt;p style=&quot;text-align: center; margin: 6px 0px 0px;&quot;&gt;&lt;span style=&quot;background-color: transparent; text-align: left;&quot;&gt;&lt;b&gt;train_pose_est&lt;/b&gt;&lt;/span&gt;&lt;b&gt;.sh&lt;/b&gt;&lt;/p&gt;&lt;hr size=&quot;1&quot; style=&quot;border-style:solid;&quot;&gt;&lt;p style=&quot;margin:0px;margin-left:8px;&quot;&gt;+ Attribute1: Type&lt;br&gt;+ Attribute2: Type&lt;/p&gt;" style="align=left;overflow=fill;html=1;dropTarget=0;whiteSpace=wrap;" vertex="1" parent="QZA-um9iZWO432kzQPNW-8">
          <mxGeometry x="290" y="404" width="230" height="90" as="geometry" />
        </mxCell>
        <mxCell id="QZA-um9iZWO432kzQPNW-75" value="" style="shape=component;jettyWidth=8;jettyHeight=4;" vertex="1" parent="QZA-um9iZWO432kzQPNW-74">
          <mxGeometry x="1" width="20" height="20" relative="1" as="geometry">
            <mxPoint x="-24" y="4" as="offset" />
          </mxGeometry>
        </mxCell>
        <mxCell id="QZA-um9iZWO432kzQPNW-76" value="&lt;b&gt;runner_pose_est.py&lt;/b&gt;" style="swimlane;fontStyle=0;childLayout=stackLayout;horizontal=1;startSize=26;fillColor=none;horizontalStack=0;resizeParent=1;resizeParentMax=0;resizeLast=0;collapsible=1;marginBottom=0;whiteSpace=wrap;html=1;" vertex="1" parent="QZA-um9iZWO432kzQPNW-8">
          <mxGeometry x="900" y="404" width="185" height="112" as="geometry" />
        </mxCell>
        <mxCell id="QZA-um9iZWO432kzQPNW-77" value="+ train():&amp;nbsp;" style="text;strokeColor=none;fillColor=none;align=left;verticalAlign=top;spacingLeft=4;spacingRight=4;overflow=hidden;rotatable=0;points=[[0,0.5],[1,0.5]];portConstraint=eastwest;whiteSpace=wrap;html=1;" vertex="1" parent="QZA-um9iZWO432kzQPNW-76">
          <mxGeometry y="26" width="185" height="26" as="geometry" />
        </mxCell>
        <mxCell id="QZA-um9iZWO432kzQPNW-78" value="+ validate():" style="text;strokeColor=none;fillColor=none;align=left;verticalAlign=top;spacingLeft=4;spacingRight=4;overflow=hidden;rotatable=0;points=[[0,0.5],[1,0.5]];portConstraint=eastwest;whiteSpace=wrap;html=1;" vertex="1" parent="QZA-um9iZWO432kzQPNW-76">
          <mxGeometry y="52" width="185" height="26" as="geometry" />
        </mxCell>
        <mxCell id="QZA-um9iZWO432kzQPNW-79" value="+ test():" style="text;strokeColor=none;fillColor=none;align=left;verticalAlign=top;spacingLeft=4;spacingRight=4;overflow=hidden;rotatable=0;points=[[0,0.5],[1,0.5]];portConstraint=eastwest;whiteSpace=wrap;html=1;" vertex="1" parent="QZA-um9iZWO432kzQPNW-76">
          <mxGeometry y="78" width="185" height="26" as="geometry" />
        </mxCell>
        <mxCell id="QZA-um9iZWO432kzQPNW-80" value="" style="line;strokeWidth=1;fillColor=none;align=left;verticalAlign=middle;spacingTop=-1;spacingLeft=3;spacingRight=3;rotatable=0;labelPosition=right;points=[];portConstraint=eastwest;strokeColor=inherit;" vertex="1" parent="QZA-um9iZWO432kzQPNW-76">
          <mxGeometry y="104" width="185" height="8" as="geometry" />
        </mxCell>
        <mxCell id="QZA-um9iZWO432kzQPNW-81" style="edgeStyle=orthogonalEdgeStyle;rounded=0;orthogonalLoop=1;jettySize=auto;html=1;" edge="1" parent="QZA-um9iZWO432kzQPNW-8" source="QZA-um9iZWO432kzQPNW-82" target="QZA-um9iZWO432kzQPNW-76">
          <mxGeometry relative="1" as="geometry" />
        </mxCell>
        <mxCell id="QZA-um9iZWO432kzQPNW-82" value="&lt;b&gt;main_pose_est.py&lt;/b&gt;" style="swimlane;fontStyle=0;childLayout=stackLayout;horizontal=1;startSize=26;fillColor=none;horizontalStack=0;resizeParent=1;resizeParentMax=0;resizeLast=0;collapsible=1;marginBottom=0;whiteSpace=wrap;html=1;" vertex="1" parent="QZA-um9iZWO432kzQPNW-8">
          <mxGeometry x="630" y="390" width="185" height="140" as="geometry" />
        </mxCell>
        <mxCell id="QZA-um9iZWO432kzQPNW-83" value="+ main():&amp;nbsp;" style="text;strokeColor=none;fillColor=none;align=left;verticalAlign=top;spacingLeft=4;spacingRight=4;overflow=hidden;rotatable=0;points=[[0,0.5],[1,0.5]];portConstraint=eastwest;whiteSpace=wrap;html=1;" vertex="1" parent="QZA-um9iZWO432kzQPNW-82">
          <mxGeometry y="26" width="185" height="26" as="geometry" />
        </mxCell>
        <mxCell id="QZA-um9iZWO432kzQPNW-84" value="" style="line;strokeWidth=1;fillColor=none;align=left;verticalAlign=middle;spacingTop=-1;spacingLeft=3;spacingRight=3;rotatable=0;labelPosition=right;points=[];portConstraint=eastwest;strokeColor=inherit;" vertex="1" parent="QZA-um9iZWO432kzQPNW-82">
          <mxGeometry y="52" width="185" height="8" as="geometry" />
        </mxCell>
        <mxCell id="QZA-um9iZWO432kzQPNW-85" value="initializes Logger, Dataloaders, BaseModel&lt;br&gt;Loads weights etc.&lt;div&gt;&lt;br/&gt;&lt;/div&gt;" style="text;strokeColor=none;fillColor=none;align=left;verticalAlign=top;spacingLeft=4;spacingRight=4;overflow=hidden;rotatable=0;points=[[0,0.5],[1,0.5]];portConstraint=eastwest;whiteSpace=wrap;html=1;" vertex="1" parent="QZA-um9iZWO432kzQPNW-82">
          <mxGeometry y="60" width="185" height="80" as="geometry" />
        </mxCell>
        <mxCell id="QZA-um9iZWO432kzQPNW-86" style="edgeStyle=orthogonalEdgeStyle;rounded=0;orthogonalLoop=1;jettySize=auto;html=1;" edge="1" parent="QZA-um9iZWO432kzQPNW-8" source="QZA-um9iZWO432kzQPNW-71" target="QZA-um9iZWO432kzQPNW-74">
          <mxGeometry relative="1" as="geometry" />
        </mxCell>
        <mxCell id="QZA-um9iZWO432kzQPNW-40" style="edgeStyle=orthogonalEdgeStyle;rounded=0;orthogonalLoop=1;jettySize=auto;html=1;" edge="1" parent="1" source="QZA-um9iZWO432kzQPNW-11" target="QZA-um9iZWO432kzQPNW-24">
          <mxGeometry relative="1" as="geometry" />
        </mxCell>
        <mxCell id="QZA-um9iZWO432kzQPNW-11" value="&lt;p style=&quot;margin:0px;margin-top:6px;text-align:center;&quot;&gt;&lt;b&gt;train_pointattn.sh&lt;/b&gt;&lt;/p&gt;&lt;hr size=&quot;1&quot; style=&quot;border-style:solid;&quot;&gt;&lt;p style=&quot;margin:0px;margin-left:8px;&quot;&gt;+ Attribute1: Type&lt;br&gt;+ Attribute2: Type&lt;/p&gt;" style="align=left;overflow=fill;html=1;dropTarget=0;whiteSpace=wrap;" vertex="1" parent="1">
          <mxGeometry x="360" y="110" width="230" height="90" as="geometry" />
        </mxCell>
        <mxCell id="QZA-um9iZWO432kzQPNW-12" value="" style="shape=component;jettyWidth=8;jettyHeight=4;" vertex="1" parent="QZA-um9iZWO432kzQPNW-11">
          <mxGeometry x="1" width="20" height="20" relative="1" as="geometry">
            <mxPoint x="-24" y="4" as="offset" />
          </mxGeometry>
        </mxCell>
        <mxCell id="QZA-um9iZWO432kzQPNW-15" value="/base/" style="swimlane;whiteSpace=wrap;html=1;" vertex="1" parent="1">
          <mxGeometry x="660" y="60" width="550" height="660" as="geometry" />
        </mxCell>
        <mxCell id="QZA-um9iZWO432kzQPNW-20" value="&lt;b&gt;runner_scaphoid.py&lt;/b&gt;" style="swimlane;fontStyle=0;childLayout=stackLayout;horizontal=1;startSize=26;fillColor=none;horizontalStack=0;resizeParent=1;resizeParentMax=0;resizeLast=0;collapsible=1;marginBottom=0;whiteSpace=wrap;html=1;" vertex="1" parent="QZA-um9iZWO432kzQPNW-15">
          <mxGeometry x="310" y="50" width="185" height="112" as="geometry" />
        </mxCell>
        <mxCell id="QZA-um9iZWO432kzQPNW-21" value="+ train():&amp;nbsp;" style="text;strokeColor=none;fillColor=none;align=left;verticalAlign=top;spacingLeft=4;spacingRight=4;overflow=hidden;rotatable=0;points=[[0,0.5],[1,0.5]];portConstraint=eastwest;whiteSpace=wrap;html=1;" vertex="1" parent="QZA-um9iZWO432kzQPNW-20">
          <mxGeometry y="26" width="185" height="26" as="geometry" />
        </mxCell>
        <mxCell id="QZA-um9iZWO432kzQPNW-22" value="+ validate():" style="text;strokeColor=none;fillColor=none;align=left;verticalAlign=top;spacingLeft=4;spacingRight=4;overflow=hidden;rotatable=0;points=[[0,0.5],[1,0.5]];portConstraint=eastwest;whiteSpace=wrap;html=1;" vertex="1" parent="QZA-um9iZWO432kzQPNW-20">
          <mxGeometry y="52" width="185" height="26" as="geometry" />
        </mxCell>
        <mxCell id="QZA-um9iZWO432kzQPNW-23" value="+ test():" style="text;strokeColor=none;fillColor=none;align=left;verticalAlign=top;spacingLeft=4;spacingRight=4;overflow=hidden;rotatable=0;points=[[0,0.5],[1,0.5]];portConstraint=eastwest;whiteSpace=wrap;html=1;" vertex="1" parent="QZA-um9iZWO432kzQPNW-20">
          <mxGeometry y="78" width="185" height="26" as="geometry" />
        </mxCell>
        <mxCell id="QZA-um9iZWO432kzQPNW-30" value="" style="line;strokeWidth=1;fillColor=none;align=left;verticalAlign=middle;spacingTop=-1;spacingLeft=3;spacingRight=3;rotatable=0;labelPosition=right;points=[];portConstraint=eastwest;strokeColor=inherit;" vertex="1" parent="QZA-um9iZWO432kzQPNW-20">
          <mxGeometry y="104" width="185" height="8" as="geometry" />
        </mxCell>
        <mxCell id="QZA-um9iZWO432kzQPNW-34" style="edgeStyle=orthogonalEdgeStyle;rounded=0;orthogonalLoop=1;jettySize=auto;html=1;" edge="1" parent="QZA-um9iZWO432kzQPNW-15" source="QZA-um9iZWO432kzQPNW-24" target="QZA-um9iZWO432kzQPNW-20">
          <mxGeometry relative="1" as="geometry" />
        </mxCell>
        <mxCell id="QZA-um9iZWO432kzQPNW-24" value="&lt;b&gt;main.py&lt;/b&gt;" style="swimlane;fontStyle=0;childLayout=stackLayout;horizontal=1;startSize=26;fillColor=none;horizontalStack=0;resizeParent=1;resizeParentMax=0;resizeLast=0;collapsible=1;marginBottom=0;whiteSpace=wrap;html=1;" vertex="1" parent="QZA-um9iZWO432kzQPNW-15">
          <mxGeometry x="40" y="36" width="185" height="140" as="geometry" />
        </mxCell>
        <mxCell id="QZA-um9iZWO432kzQPNW-25" value="+ main():&amp;nbsp;" style="text;strokeColor=none;fillColor=none;align=left;verticalAlign=top;spacingLeft=4;spacingRight=4;overflow=hidden;rotatable=0;points=[[0,0.5],[1,0.5]];portConstraint=eastwest;whiteSpace=wrap;html=1;" vertex="1" parent="QZA-um9iZWO432kzQPNW-24">
          <mxGeometry y="26" width="185" height="26" as="geometry" />
        </mxCell>
        <mxCell id="QZA-um9iZWO432kzQPNW-32" value="" style="line;strokeWidth=1;fillColor=none;align=left;verticalAlign=middle;spacingTop=-1;spacingLeft=3;spacingRight=3;rotatable=0;labelPosition=right;points=[];portConstraint=eastwest;strokeColor=inherit;" vertex="1" parent="QZA-um9iZWO432kzQPNW-24">
          <mxGeometry y="52" width="185" height="8" as="geometry" />
        </mxCell>
        <mxCell id="QZA-um9iZWO432kzQPNW-33" value="initializes Logger, Dataloaders, BaseModel&lt;br&gt;Loads weights etc.&lt;div&gt;&lt;br/&gt;&lt;/div&gt;" style="text;strokeColor=none;fillColor=none;align=left;verticalAlign=top;spacingLeft=4;spacingRight=4;overflow=hidden;rotatable=0;points=[[0,0.5],[1,0.5]];portConstraint=eastwest;whiteSpace=wrap;html=1;" vertex="1" parent="QZA-um9iZWO432kzQPNW-24">
          <mxGeometry y="60" width="185" height="80" as="geometry" />
        </mxCell>
        <mxCell id="QZA-um9iZWO432kzQPNW-35" style="edgeStyle=orthogonalEdgeStyle;rounded=0;orthogonalLoop=1;jettySize=auto;html=1;" edge="1" parent="1">
          <mxGeometry relative="1" as="geometry">
            <mxPoint x="1310" y="110" as="sourcePoint" />
            <mxPoint x="1395" y="110" as="targetPoint" />
          </mxGeometry>
        </mxCell>
        <mxCell id="QZA-um9iZWO432kzQPNW-36" value="X uses Y" style="edgeLabel;html=1;align=center;verticalAlign=middle;resizable=0;points=[];" vertex="1" connectable="0" parent="QZA-um9iZWO432kzQPNW-35">
          <mxGeometry x="-0.2706" y="4" relative="1" as="geometry">
            <mxPoint x="8" y="-5" as="offset" />
          </mxGeometry>
        </mxCell>
        <mxCell id="QZA-um9iZWO432kzQPNW-37" value="X" style="edgeLabel;html=1;align=center;verticalAlign=middle;resizable=0;points=[];" vertex="1" connectable="0" parent="QZA-um9iZWO432kzQPNW-35">
          <mxGeometry x="-0.6" y="1" relative="1" as="geometry">
            <mxPoint x="-25" as="offset" />
          </mxGeometry>
        </mxCell>
        <mxCell id="QZA-um9iZWO432kzQPNW-38" value="Y" style="edgeLabel;html=1;align=center;verticalAlign=middle;resizable=0;points=[];" vertex="1" connectable="0" parent="QZA-um9iZWO432kzQPNW-35">
          <mxGeometry x="-0.5294" y="3" relative="1" as="geometry">
            <mxPoint x="70" y="2" as="offset" />
          </mxGeometry>
        </mxCell>
        <mxCell id="QZA-um9iZWO432kzQPNW-39" style="edgeStyle=orthogonalEdgeStyle;rounded=0;orthogonalLoop=1;jettySize=auto;html=1;" edge="1" parent="1" source="QZA-um9iZWO432kzQPNW-9" target="QZA-um9iZWO432kzQPNW-11">
          <mxGeometry relative="1" as="geometry" />
        </mxCell>
      </root>
    </mxGraphModel>
  </diagram>
  <diagram id="ljAp9-GAN_2MimGncCUP" name="DatasetStructure">
    <mxGraphModel dx="1426" dy="848" grid="1" gridSize="10" guides="1" tooltips="1" connect="1" arrows="1" fold="1" page="1" pageScale="1" pageWidth="850" pageHeight="1100" math="0" shadow="0">
      <root>
        <mxCell id="0" />
        <mxCell id="1" parent="0" />
        <mxCell id="fdgPG_1fegPYSY9blU3d-2" value="/base/scaphoid_datasets/" style="swimlane;whiteSpace=wrap;html=1;" vertex="1" parent="1">
          <mxGeometry x="50" y="50" width="870" height="820" as="geometry" />
        </mxCell>
        <mxCell id="fdgPG_1fegPYSY9blU3d-30" style="edgeStyle=orthogonalEdgeStyle;rounded=0;orthogonalLoop=1;jettySize=auto;html=1;endArrow=block;endFill=0;" edge="1" parent="fdgPG_1fegPYSY9blU3d-2" source="fdgPG_1fegPYSY9blU3d-3" target="fdgPG_1fegPYSY9blU3d-26">
          <mxGeometry relative="1" as="geometry" />
        </mxCell>
        <mxCell id="fdgPG_1fegPYSY9blU3d-3" value="BaseDataset" style="swimlane;fontStyle=1;align=center;verticalAlign=top;childLayout=stackLayout;horizontal=1;startSize=26;horizontalStack=0;resizeParent=1;resizeParentMax=0;resizeLast=0;collapsible=1;marginBottom=0;whiteSpace=wrap;html=1;" vertex="1" parent="fdgPG_1fegPYSY9blU3d-2">
          <mxGeometry x="275" y="110" width="230" height="310" as="geometry" />
        </mxCell>
        <mxCell id="fdgPG_1fegPYSY9blU3d-4" value="+ field: type" style="text;strokeColor=none;fillColor=none;align=left;verticalAlign=top;spacingLeft=4;spacingRight=4;overflow=hidden;rotatable=0;points=[[0,0.5],[1,0.5]];portConstraint=eastwest;whiteSpace=wrap;html=1;" vertex="1" parent="fdgPG_1fegPYSY9blU3d-3">
          <mxGeometry y="26" width="230" height="26" as="geometry" />
        </mxCell>
        <mxCell id="fdgPG_1fegPYSY9blU3d-5" value="" style="line;strokeWidth=1;fillColor=none;align=left;verticalAlign=middle;spacingTop=-1;spacingLeft=3;spacingRight=3;rotatable=0;labelPosition=right;points=[];portConstraint=eastwest;strokeColor=inherit;" vertex="1" parent="fdgPG_1fegPYSY9blU3d-3">
          <mxGeometry y="52" width="230" height="8" as="geometry" />
        </mxCell>
        <mxCell id="fdgPG_1fegPYSY9blU3d-6" value="+ static __get_h5_file_list(...)" style="text;strokeColor=none;fillColor=none;align=left;verticalAlign=top;spacingLeft=4;spacingRight=4;overflow=hidden;rotatable=0;points=[[0,0.5],[1,0.5]];portConstraint=eastwest;whiteSpace=wrap;html=1;" vertex="1" parent="fdgPG_1fegPYSY9blU3d-3">
          <mxGeometry y="60" width="230" height="26" as="geometry" />
        </mxCell>
        <mxCell id="fdgPG_1fegPYSY9blU3d-31" value="+ static __load_h5_data(...)" style="text;strokeColor=none;fillColor=none;align=left;verticalAlign=top;spacingLeft=4;spacingRight=4;overflow=hidden;rotatable=0;points=[[0,0.5],[1,0.5]];portConstraint=eastwest;whiteSpace=wrap;html=1;" vertex="1" parent="fdgPG_1fegPYSY9blU3d-3">
          <mxGeometry y="86" width="230" height="26" as="geometry" />
        </mxCell>
        <mxCell id="fdgPG_1fegPYSY9blU3d-39" value="+ static get_completion_data(...)" style="text;strokeColor=none;fillColor=none;align=left;verticalAlign=top;spacingLeft=4;spacingRight=4;overflow=hidden;rotatable=0;points=[[0,0.5],[1,0.5]];portConstraint=eastwest;whiteSpace=wrap;html=1;" vertex="1" parent="fdgPG_1fegPYSY9blU3d-3">
          <mxGeometry y="112" width="230" height="26" as="geometry" />
        </mxCell>
        <mxCell id="fdgPG_1fegPYSY9blU3d-42" value="+ static _get_transforms(...)" style="text;strokeColor=none;fillColor=none;align=left;verticalAlign=top;spacingLeft=4;spacingRight=4;overflow=hidden;rotatable=0;points=[[0,0.5],[1,0.5]];portConstraint=eastwest;whiteSpace=wrap;html=1;" vertex="1" parent="fdgPG_1fegPYSY9blU3d-3">
          <mxGeometry y="138" width="230" height="26" as="geometry" />
        </mxCell>
        <mxCell id="fdgPG_1fegPYSY9blU3d-51" value="" style="line;strokeWidth=1;fillColor=none;align=left;verticalAlign=middle;spacingTop=-1;spacingLeft=3;spacingRight=3;rotatable=0;labelPosition=right;points=[];portConstraint=eastwest;strokeColor=inherit;" vertex="1" parent="fdgPG_1fegPYSY9blU3d-3">
          <mxGeometry y="164" width="230" height="8" as="geometry" />
        </mxCell>
        <mxCell id="fdgPG_1fegPYSY9blU3d-43" value="+ change_transforms(...)" style="text;strokeColor=none;fillColor=none;align=left;verticalAlign=top;spacingLeft=4;spacingRight=4;overflow=hidden;rotatable=0;points=[[0,0.5],[1,0.5]];portConstraint=eastwest;whiteSpace=wrap;html=1;" vertex="1" parent="fdgPG_1fegPYSY9blU3d-3">
          <mxGeometry y="172" width="230" height="26" as="geometry" />
        </mxCell>
        <mxCell id="fdgPG_1fegPYSY9blU3d-32" value="+ get_indices_sample(idx: int)" style="text;strokeColor=none;fillColor=none;align=left;verticalAlign=top;spacingLeft=4;spacingRight=4;overflow=hidden;rotatable=0;points=[[0,0.5],[1,0.5]];portConstraint=eastwest;whiteSpace=wrap;html=1;" vertex="1" parent="fdgPG_1fegPYSY9blU3d-3">
          <mxGeometry y="198" width="230" height="26" as="geometry" />
        </mxCell>
        <mxCell id="fdgPG_1fegPYSY9blU3d-40" value="+ get_pcd_sample(idx: int)" style="text;strokeColor=none;fillColor=none;align=left;verticalAlign=top;spacingLeft=4;spacingRight=4;overflow=hidden;rotatable=0;points=[[0,0.5],[1,0.5]];portConstraint=eastwest;whiteSpace=wrap;html=1;" vertex="1" parent="fdgPG_1fegPYSY9blU3d-3">
          <mxGeometry y="224" width="230" height="26" as="geometry" />
        </mxCell>
        <mxCell id="fdgPG_1fegPYSY9blU3d-52" value="" style="line;strokeWidth=1;fillColor=none;align=left;verticalAlign=middle;spacingTop=-1;spacingLeft=3;spacingRight=3;rotatable=0;labelPosition=right;points=[];portConstraint=eastwest;strokeColor=inherit;" vertex="1" parent="fdgPG_1fegPYSY9blU3d-3">
          <mxGeometry y="250" width="230" height="8" as="geometry" />
        </mxCell>
        <mxCell id="fdgPG_1fegPYSY9blU3d-41" value="+ __getitem__(idx: int)" style="text;strokeColor=none;fillColor=none;align=left;verticalAlign=top;spacingLeft=4;spacingRight=4;overflow=hidden;rotatable=0;points=[[0,0.5],[1,0.5]];portConstraint=eastwest;whiteSpace=wrap;html=1;" vertex="1" parent="fdgPG_1fegPYSY9blU3d-3">
          <mxGeometry y="258" width="230" height="26" as="geometry" />
        </mxCell>
        <mxCell id="fdgPG_1fegPYSY9blU3d-44" value="+ __len__(idx: int)" style="text;strokeColor=none;fillColor=none;align=left;verticalAlign=top;spacingLeft=4;spacingRight=4;overflow=hidden;rotatable=0;points=[[0,0.5],[1,0.5]];portConstraint=eastwest;whiteSpace=wrap;html=1;" vertex="1" parent="fdgPG_1fegPYSY9blU3d-3">
          <mxGeometry y="284" width="230" height="26" as="geometry" />
        </mxCell>
        <mxCell id="fdgPG_1fegPYSY9blU3d-19" style="edgeStyle=orthogonalEdgeStyle;rounded=0;orthogonalLoop=1;jettySize=auto;html=1;endArrow=block;endFill=0;" edge="1" parent="fdgPG_1fegPYSY9blU3d-2" source="fdgPG_1fegPYSY9blU3d-7" target="fdgPG_1fegPYSY9blU3d-3">
          <mxGeometry relative="1" as="geometry">
            <Array as="points">
              <mxPoint x="120" y="470" />
              <mxPoint x="390" y="470" />
            </Array>
          </mxGeometry>
        </mxCell>
        <mxCell id="fdgPG_1fegPYSY9blU3d-7" value="ScaphoidDataset" style="swimlane;fontStyle=1;align=center;verticalAlign=top;childLayout=stackLayout;horizontal=1;startSize=26;horizontalStack=0;resizeParent=1;resizeParentMax=0;resizeLast=0;collapsible=1;marginBottom=0;whiteSpace=wrap;html=1;" vertex="1" parent="fdgPG_1fegPYSY9blU3d-2">
          <mxGeometry x="40" y="500" width="160" height="86" as="geometry" />
        </mxCell>
        <mxCell id="fdgPG_1fegPYSY9blU3d-8" value="+ field: type" style="text;strokeColor=none;fillColor=none;align=left;verticalAlign=top;spacingLeft=4;spacingRight=4;overflow=hidden;rotatable=0;points=[[0,0.5],[1,0.5]];portConstraint=eastwest;whiteSpace=wrap;html=1;" vertex="1" parent="fdgPG_1fegPYSY9blU3d-7">
          <mxGeometry y="26" width="160" height="26" as="geometry" />
        </mxCell>
        <mxCell id="fdgPG_1fegPYSY9blU3d-9" value="" style="line;strokeWidth=1;fillColor=none;align=left;verticalAlign=middle;spacingTop=-1;spacingLeft=3;spacingRight=3;rotatable=0;labelPosition=right;points=[];portConstraint=eastwest;strokeColor=inherit;" vertex="1" parent="fdgPG_1fegPYSY9blU3d-7">
          <mxGeometry y="52" width="160" height="8" as="geometry" />
        </mxCell>
        <mxCell id="fdgPG_1fegPYSY9blU3d-10" value="+&amp;nbsp;__getitem__(idx: int)" style="text;strokeColor=none;fillColor=none;align=left;verticalAlign=top;spacingLeft=4;spacingRight=4;overflow=hidden;rotatable=0;points=[[0,0.5],[1,0.5]];portConstraint=eastwest;whiteSpace=wrap;html=1;" vertex="1" parent="fdgPG_1fegPYSY9blU3d-7">
          <mxGeometry y="60" width="160" height="26" as="geometry" />
        </mxCell>
        <mxCell id="fdgPG_1fegPYSY9blU3d-20" style="edgeStyle=orthogonalEdgeStyle;rounded=0;orthogonalLoop=1;jettySize=auto;html=1;endArrow=block;endFill=0;" edge="1" parent="fdgPG_1fegPYSY9blU3d-2" source="fdgPG_1fegPYSY9blU3d-11" target="fdgPG_1fegPYSY9blU3d-3">
          <mxGeometry relative="1" as="geometry">
            <mxPoint x="375" y="530" as="targetPoint" />
            <Array as="points" />
          </mxGeometry>
        </mxCell>
        <mxCell id="fdgPG_1fegPYSY9blU3d-11" value="RotationDataset" style="swimlane;fontStyle=1;align=center;verticalAlign=top;childLayout=stackLayout;horizontal=1;startSize=26;horizontalStack=0;resizeParent=1;resizeParentMax=0;resizeLast=0;collapsible=1;marginBottom=0;whiteSpace=wrap;html=1;" vertex="1" parent="fdgPG_1fegPYSY9blU3d-2">
          <mxGeometry x="295" y="520" width="190" height="120" as="geometry" />
        </mxCell>
        <mxCell id="fdgPG_1fegPYSY9blU3d-12" value="+ field: type" style="text;strokeColor=none;fillColor=none;align=left;verticalAlign=top;spacingLeft=4;spacingRight=4;overflow=hidden;rotatable=0;points=[[0,0.5],[1,0.5]];portConstraint=eastwest;whiteSpace=wrap;html=1;" vertex="1" parent="fdgPG_1fegPYSY9blU3d-11">
          <mxGeometry y="26" width="190" height="26" as="geometry" />
        </mxCell>
        <mxCell id="fdgPG_1fegPYSY9blU3d-13" value="" style="line;strokeWidth=1;fillColor=none;align=left;verticalAlign=middle;spacingTop=-1;spacingLeft=3;spacingRight=3;rotatable=0;labelPosition=right;points=[];portConstraint=eastwest;strokeColor=inherit;" vertex="1" parent="fdgPG_1fegPYSY9blU3d-11">
          <mxGeometry y="52" width="190" height="8" as="geometry" />
        </mxCell>
        <mxCell id="fdgPG_1fegPYSY9blU3d-14" value="+ static get_rotation_data(...)" style="text;strokeColor=none;fillColor=none;align=left;verticalAlign=top;spacingLeft=4;spacingRight=4;overflow=hidden;rotatable=0;points=[[0,0.5],[1,0.5]];portConstraint=eastwest;whiteSpace=wrap;html=1;" vertex="1" parent="fdgPG_1fegPYSY9blU3d-11">
          <mxGeometry y="60" width="190" height="26" as="geometry" />
        </mxCell>
        <mxCell id="fdgPG_1fegPYSY9blU3d-50" value="" style="line;strokeWidth=1;fillColor=none;align=left;verticalAlign=middle;spacingTop=-1;spacingLeft=3;spacingRight=3;rotatable=0;labelPosition=right;points=[];portConstraint=eastwest;strokeColor=inherit;" vertex="1" parent="fdgPG_1fegPYSY9blU3d-11">
          <mxGeometry y="86" width="190" height="8" as="geometry" />
        </mxCell>
        <mxCell id="fdgPG_1fegPYSY9blU3d-45" value="+&amp;nbsp;__getitem__(idx: int)" style="text;strokeColor=none;fillColor=none;align=left;verticalAlign=top;spacingLeft=4;spacingRight=4;overflow=hidden;rotatable=0;points=[[0,0.5],[1,0.5]];portConstraint=eastwest;whiteSpace=wrap;html=1;" vertex="1" parent="fdgPG_1fegPYSY9blU3d-11">
          <mxGeometry y="94" width="190" height="26" as="geometry" />
        </mxCell>
        <mxCell id="fdgPG_1fegPYSY9blU3d-21" style="edgeStyle=orthogonalEdgeStyle;rounded=0;orthogonalLoop=1;jettySize=auto;html=1;endArrow=block;endFill=0;exitX=0.5;exitY=0;exitDx=0;exitDy=0;" edge="1" parent="fdgPG_1fegPYSY9blU3d-2" source="fdgPG_1fegPYSY9blU3d-15" target="fdgPG_1fegPYSY9blU3d-3">
          <mxGeometry relative="1" as="geometry">
            <Array as="points">
              <mxPoint x="670" y="470" />
              <mxPoint x="390" y="470" />
            </Array>
          </mxGeometry>
        </mxCell>
        <mxCell id="fdgPG_1fegPYSY9blU3d-15" value="PoseEstimationDataset" style="swimlane;fontStyle=1;align=center;verticalAlign=top;childLayout=stackLayout;horizontal=1;startSize=26;horizontalStack=0;resizeParent=1;resizeParentMax=0;resizeLast=0;collapsible=1;marginBottom=0;whiteSpace=wrap;html=1;" vertex="1" parent="fdgPG_1fegPYSY9blU3d-2">
          <mxGeometry x="540" y="600" width="260" height="198" as="geometry" />
        </mxCell>
        <mxCell id="fdgPG_1fegPYSY9blU3d-16" value="+ field: type" style="text;strokeColor=none;fillColor=none;align=left;verticalAlign=top;spacingLeft=4;spacingRight=4;overflow=hidden;rotatable=0;points=[[0,0.5],[1,0.5]];portConstraint=eastwest;whiteSpace=wrap;html=1;" vertex="1" parent="fdgPG_1fegPYSY9blU3d-15">
          <mxGeometry y="26" width="260" height="26" as="geometry" />
        </mxCell>
        <mxCell id="fdgPG_1fegPYSY9blU3d-17" value="" style="line;strokeWidth=1;fillColor=none;align=left;verticalAlign=middle;spacingTop=-1;spacingLeft=3;spacingRight=3;rotatable=0;labelPosition=right;points=[];portConstraint=eastwest;strokeColor=inherit;" vertex="1" parent="fdgPG_1fegPYSY9blU3d-15">
          <mxGeometry y="52" width="260" height="8" as="geometry" />
        </mxCell>
        <mxCell id="fdgPG_1fegPYSY9blU3d-18" value="+ static _get_pre_processing_transforms(...)" style="text;strokeColor=none;fillColor=none;align=left;verticalAlign=top;spacingLeft=4;spacingRight=4;overflow=hidden;rotatable=0;points=[[0,0.5],[1,0.5]];portConstraint=eastwest;whiteSpace=wrap;html=1;" vertex="1" parent="fdgPG_1fegPYSY9blU3d-15">
          <mxGeometry y="60" width="260" height="26" as="geometry" />
        </mxCell>
        <mxCell id="fdgPG_1fegPYSY9blU3d-22" value="+ static get_pose_estimation_data(...)" style="text;strokeColor=none;fillColor=none;align=left;verticalAlign=top;spacingLeft=4;spacingRight=4;overflow=hidden;rotatable=0;points=[[0,0.5],[1,0.5]];portConstraint=eastwest;whiteSpace=wrap;html=1;" vertex="1" parent="fdgPG_1fegPYSY9blU3d-15">
          <mxGeometry y="86" width="260" height="26" as="geometry" />
        </mxCell>
        <mxCell id="fdgPG_1fegPYSY9blU3d-46" value="+ static get_preprocessed_data(...)" style="text;strokeColor=none;fillColor=none;align=left;verticalAlign=top;spacingLeft=4;spacingRight=4;overflow=hidden;rotatable=0;points=[[0,0.5],[1,0.5]];portConstraint=eastwest;whiteSpace=wrap;html=1;" vertex="1" parent="fdgPG_1fegPYSY9blU3d-15">
          <mxGeometry y="112" width="260" height="26" as="geometry" />
        </mxCell>
        <mxCell id="fdgPG_1fegPYSY9blU3d-47" value="+ static create_RTS_matrices(...)" style="text;strokeColor=none;fillColor=none;align=left;verticalAlign=top;spacingLeft=4;spacingRight=4;overflow=hidden;rotatable=0;points=[[0,0.5],[1,0.5]];portConstraint=eastwest;whiteSpace=wrap;html=1;" vertex="1" parent="fdgPG_1fegPYSY9blU3d-15">
          <mxGeometry y="138" width="260" height="26" as="geometry" />
        </mxCell>
        <mxCell id="fdgPG_1fegPYSY9blU3d-49" value="" style="line;strokeWidth=1;fillColor=none;align=left;verticalAlign=middle;spacingTop=-1;spacingLeft=3;spacingRight=3;rotatable=0;labelPosition=right;points=[];portConstraint=eastwest;strokeColor=inherit;" vertex="1" parent="fdgPG_1fegPYSY9blU3d-15">
          <mxGeometry y="164" width="260" height="8" as="geometry" />
        </mxCell>
        <mxCell id="fdgPG_1fegPYSY9blU3d-48" value="+&amp;nbsp;__getitem__(idx: int)" style="text;strokeColor=none;fillColor=none;align=left;verticalAlign=top;spacingLeft=4;spacingRight=4;overflow=hidden;rotatable=0;points=[[0,0.5],[1,0.5]];portConstraint=eastwest;whiteSpace=wrap;html=1;" vertex="1" parent="fdgPG_1fegPYSY9blU3d-15">
          <mxGeometry y="172" width="260" height="26" as="geometry" />
        </mxCell>
        <mxCell id="fdgPG_1fegPYSY9blU3d-23" style="edgeStyle=orthogonalEdgeStyle;rounded=0;orthogonalLoop=1;jettySize=auto;html=1;entryX=0;entryY=0.5;entryDx=0;entryDy=0;" edge="1" parent="fdgPG_1fegPYSY9blU3d-2" source="fdgPG_1fegPYSY9blU3d-10" target="fdgPG_1fegPYSY9blU3d-18">
          <mxGeometry relative="1" as="geometry">
            <Array as="points">
              <mxPoint x="230" y="570" />
              <mxPoint x="230" y="673" />
            </Array>
          </mxGeometry>
        </mxCell>
        <mxCell id="fdgPG_1fegPYSY9blU3d-24" style="edgeStyle=orthogonalEdgeStyle;rounded=0;orthogonalLoop=1;jettySize=auto;html=1;entryX=0;entryY=0.5;entryDx=0;entryDy=0;" edge="1" parent="fdgPG_1fegPYSY9blU3d-2" source="fdgPG_1fegPYSY9blU3d-10" target="fdgPG_1fegPYSY9blU3d-22">
          <mxGeometry relative="1" as="geometry">
            <Array as="points">
              <mxPoint x="230" y="570" />
              <mxPoint x="230" y="699" />
            </Array>
          </mxGeometry>
        </mxCell>
        <mxCell id="fdgPG_1fegPYSY9blU3d-25" style="edgeStyle=orthogonalEdgeStyle;rounded=0;orthogonalLoop=1;jettySize=auto;html=1;" edge="1" parent="fdgPG_1fegPYSY9blU3d-2" source="fdgPG_1fegPYSY9blU3d-10" target="fdgPG_1fegPYSY9blU3d-14">
          <mxGeometry relative="1" as="geometry">
            <Array as="points">
              <mxPoint x="230" y="570" />
              <mxPoint x="230" y="593" />
            </Array>
          </mxGeometry>
        </mxCell>
        <mxCell id="fdgPG_1fegPYSY9blU3d-26" value="torch.utils.data.Dataset" style="swimlane;fontStyle=1;align=center;verticalAlign=top;childLayout=stackLayout;horizontal=1;startSize=26;horizontalStack=0;resizeParent=1;resizeParentMax=0;resizeLast=0;collapsible=1;marginBottom=0;whiteSpace=wrap;html=1;" vertex="1" parent="fdgPG_1fegPYSY9blU3d-2">
          <mxGeometry x="300" y="40" width="180" height="34" as="geometry" />
        </mxCell>
        <mxCell id="fdgPG_1fegPYSY9blU3d-28" value="" style="line;strokeWidth=1;fillColor=none;align=left;verticalAlign=middle;spacingTop=-1;spacingLeft=3;spacingRight=3;rotatable=0;labelPosition=right;points=[];portConstraint=eastwest;strokeColor=inherit;" vertex="1" parent="fdgPG_1fegPYSY9blU3d-26">
          <mxGeometry y="26" width="180" height="8" as="geometry" />
        </mxCell>
      </root>
    </mxGraphModel>
  </diagram>
</mxfile>
